<svg xmlns="http://www.w3.org/2000/svg" viewBox="0 0 64 64" role="img" aria-label="Biding">
  <defs>
    <linearGradient id="bg" x1="8" y1="4" x2="56" y2="60" gradientUnits="userSpaceOnUse">
      <stop stop-color="#1975ff"/>
      <stop offset="1" stop-color="#6366f1"/>
    </linearGradient>
    <linearGradient id="shine" x1="20" y1="12" x2="44" y2="52" gradientUnits="userSpaceOnUse">
      <stop stop-color="#ffffff" stop-opacity="0.35"/>
      <stop offset="1" stop-color="#ffffff" stop-opacity="0"/>
    </linearGradient>
  </defs>
  <rect width="64" height="64" rx="16" fill="url(#bg)"/>
  <rect width="64" height="64" rx="16" fill="url(#shine)"/>
  <path
    fill="#ffffff"
    d="M18 22h28a3 3 0 0 1 3 3v18a3 3 0 0 1-3 3H18a3 3 0 0 1-3-3V25a3 3 0 0 1 3-3zm0 6v15h28V28H18z"
  />
  <path
    fill="#ffffff"
    d="M24 22v-3a4 4 0 0 1 4-4h8a4 4 0 0 1 4 4v3h-4v-3a1 1 0 0 0-1-1h-6a1 1 0 0 0-1 1v3h-4z"
  />
  <path
    fill="#dbeafe"
    d="M22 34h14a2 2 0 0 1 0 4H22a2 2 0 0 1 0-4zm0 8h10a2 2 0 0 1 0 4H22a2 2 0 0 1 0-4z"
  />
  <path
    fill="#22c55e"
    d="M40 36l3 3 7-8 3 3-10 11-6-6z"
  />
</svg>
